<svg id="icons8-css3" xmlns="http://www.w3.org/2000/svg" width="223.158" height="223.158" viewBox="0 0 223.158 223.158">
  <path id="Path_7" data-name="Path 7" d="M230.158,5H7L26.69,204.668l91.889,23.49,91.889-23.49Z" transform="translate(-7 -5)" fill="#0277bd"/>
  <path id="Path_8" data-name="Path 8" d="M24,8V195.326l73.506-18.788L113.914,8Z" transform="translate(87.579 9.618)" fill="#039be5"/>
  <path id="Path_9" data-name="Path 9" d="M83.738,13H24V36.49H56.151L54.2,59.981H24v23.49H52.869L50.921,109.9,24,118.11v24.684l51.841-15.278,4.615-67.535Z" transform="translate(87.579 33.981)" fill="#fff"/>
  <path id="Path_10" data-name="Path 10" d="M75.18,13V36.49h-58.4L14.8,13Zm-30.2,46.981,1.334,23.49H75.18V59.981Zm2.641,35.236H21.364l1.974,32.3L75.18,142.794V118.11L48.259,109.9Z" transform="translate(36.4 33.981)" fill="#eee"/>
</svg>
