<svg id="icons8-git_1_" data-name="icons8-git (1)" xmlns="http://www.w3.org/2000/svg" width="223.158" height="223.158" viewBox="0 0 223.158 223.158">
  <path id="Path_11" data-name="Path 11" d="M223.455,105.431,127.728,9.7a15.566,15.566,0,0,0-22.3,0L84.877,30.257,108.94,54.32a16.364,16.364,0,0,1,7.639-1.743A17.3,17.3,0,0,1,134.2,70.2a16.211,16.211,0,0,1-1.766,7.616l23.49,23.49a16.364,16.364,0,0,1,7.639-1.743,17.618,17.618,0,1,1-17.618,17.618,16.307,16.307,0,0,1,1.766-7.639l-23.49-23.49c-.6,0-1.17.573-1.766.573v61.089A17.1,17.1,0,0,1,134.2,164.156a17.618,17.618,0,1,1-35.235,0,17.105,17.105,0,0,1,11.745-16.448V86.046A17.127,17.127,0,0,1,98.961,69.6a16.375,16.375,0,0,1,1.766-7.639L76.641,37.9,9.7,105.431a15.566,15.566,0,0,0,0,22.3l95.728,95.728a15.566,15.566,0,0,0,22.3,0l95.728-95.728a15.566,15.566,0,0,0,0-22.3Z" transform="translate(-5 -5)" fill="#f4511e"/>
</svg>
