<svg id="icons8-html-5_2_" data-name="icons8-html-5 (2)" xmlns="http://www.w3.org/2000/svg" width="225.25" height="227.567" viewBox="0 0 225.25 227.567">
  <path id="Path_12" data-name="Path 12" d="M232.25,5H7L26.875,208.612l92.75,23.954,92.75-23.954Z" transform="translate(-7 -5)" fill="#e65100"/>
  <path id="Path_13" data-name="Path 13" d="M24,8V199.734L98.195,180.5,114.757,8Z" transform="translate(88.625 9.618)" fill="#ff6d00"/>
  <path id="Path_14" data-name="Path 14" d="M24,85.865V61.576H80.986L76.327,131.4,24,147.2V121.68l27.173-8.491,1.966-27.324ZM82.952,37.288,84.945,13H24V37.288Z" transform="translate(88.625 33.981)" fill="#fff"/>
  <path id="Path_15" data-name="Path 15" d="M75.2,121.68V147.2L22.87,131.4,20.2,98.009H46.7l1.32,15.18ZM42.745,37.288H75.2V13H14.9l4.659,72.865H75.2V61.576H44.711Z" transform="translate(37.429 33.981)" fill="#eee"/>
</svg>
