<svg xmlns="http://www.w3.org/2000/svg" width="223.158" height="223.158" viewBox="0 0 223.158 223.158">
  <path id="Path_16" data-name="Path 16" d="M213,4H18.176A14.181,14.181,0,0,0,4,18.176V212.982a14.181,14.181,0,0,0,14.176,14.176H212.982A14.177,14.177,0,0,0,227.158,213V18.176A14.177,14.177,0,0,0,213,4Zm-86.8,171c0,21.232-12.453,30.9-30.634,30.9-16.438,0-28.289-11.021-33.125-21.253l16.708-10.107c3.217,5.708,8.116,10.107,15.172,10.107,6.745,0,10.627-2.636,10.627-12.889v-66.81h21.253Zm46.1,30.9c-18.825,0-29.514-9.485-35.47-21.253l15.94-10.627c4.338,7.1,9.07,13.885,19.074,13.885,8.406,0,12.806-4.193,12.806-10,0-6.932-4.566-9.4-13.8-13.45l-5.064-2.179c-14.632-6.227-24.366-14.031-24.366-30.551,0-15.193,11.6-26.774,29.7-26.774,12.889,0,22.146,4.483,28.829,16.231l-15.774,10.149c-3.487-6.247-7.223-8.7-13.055-8.7-5.936,0-9.692,3.778-9.692,8.7,0,6.082,3.757,8.53,12.453,12.308l5.064,2.179c17.247,7.368,26.961,14.9,26.961,31.838C205.905,195.9,191.563,205.905,172.3,205.905Z" transform="translate(-4 -4)" fill="#edd718"/>
</svg>
