<svg width="400" height="400" xmlns="http://www.w3.org/2000/svg">
 <!-- Created with Method Draw - http://github.com/duopixel/Method-Draw/ -->

 <g>
  <title>background</title>
  <rect fill="#fff" id="canvas_background" height="402" width="402" y="-1" x="-1"/>
  <g display="none" overflow="visible" y="0" x="0" height="100%" width="100%" id="canvasGrid">
   <rect fill="url(#gridpattern)" stroke-width="0" y="0" x="0" height="100%" width="100%"/>
  </g>
 </g>
 <g>
  <title>Layer 1</title>
  <g stroke="null" id="svg_19">
   <path stroke="null" fill="#388e3c" d="m145.08968,150.992828l-40.238252,22.264225a4.630663,4.630663 0 0 0 -2.434405,4.03441l0,44.565496a4.630663,4.630663 0 0 0 2.434405,4.036174l40.238252,22.297743a5.239264,5.239264 0 0 0 4.870575,0l40.238252,-22.297743a4.630663,4.630663 0 0 0 2.434405,-4.036174l0,-44.565496a4.630663,4.630663 0 0 0 -2.434405,-4.036174l-40.238252,-22.262461a5.175758,5.175758 0 0 0 -4.870575,0" id="svg_17"/>
   <path stroke="null" fill="#388e3c" d="m352.141151,191.102303l-6.703435,3.716878a0.721501,0.721501 0 0 0 -0.384565,0.673872l0,7.431993a0.721501,0.721501 0 0 0 0.384565,0.673872l6.703435,3.716878a0.952593,0.952593 0 0 0 0.832637,0l6.703435,-3.716878a0.749726,0.749726 0 0 0 0.416319,-0.673872l0,-7.431993a0.749726,0.749726 0 0 0 -0.416319,-0.673872l-6.703435,-3.716878a0.952593,0.952593 0 0 0 -0.832637,0" id="svg_16"/>
   <path stroke="null" fill="#37474f" d="m297.197675,103.770654l-19.581087,-10.924835a1.921063,1.921063 0 0 0 -1.986334,0.031753a1.965165,1.965165 0 0 0 -0.993167,1.697028l0,66.06059l-18.060466,-10.026928a5.175758,5.175758 0 0 0 -4.870575,0l-40.238252,22.265989a4.628898,4.628898 0 0 0 -2.434405,4.03441l0,44.563732a4.628898,4.628898 0 0 0 2.434405,4.036174l40.238252,22.297743a5.2375,5.2375 0 0 0 4.870575,0l40.236488,-22.297743a4.628898,4.628898 0 0 0 2.434405,-4.036174l0,-114.21066a4.041466,4.041466 0 0 0 -2.04984,-3.491079zm-23.63843,107.385505l-18.293322,10.123951a2.261527,2.261527 0 0 1 -2.21037,0l-18.293322,-10.123951a2.095706,2.095706 0 0 1 -1.121943,-1.825804l0,-20.249667a2.10629,2.10629 0 0 1 1.121943,-1.857557l18.293322,-10.123951l-0.031753,0a2.307393,2.307393 0 0 1 1.121943,-0.257553a2.732532,2.732532 0 0 1 1.121943,0.257553l18.261569,10.123951a2.10629,2.10629 0 0 1 1.121943,1.857557l0,20.249667a2.129223,2.129223 0 0 1 -1.095482,1.825804l0.003528,0z" id="svg_15"/>
   <path stroke="null" fill="#2e7d32" d="m145.08968,150.992828l-42.672658,70.864131a4.630663,4.630663 0 0 0 2.434405,4.036174l40.238252,22.297743a5.239264,5.239264 0 0 0 4.870575,0l42.670894,-70.899412a4.630663,4.630663 0 0 0 -2.434405,-4.036174l-40.236488,-22.262461a5.175758,5.175758 0 0 0 -4.870575,0" id="svg_14"/>
   <path stroke="null" fill="#4caf50" d="m145.08968,150.992828l-40.238252,22.264225a4.630663,4.630663 0 0 0 -2.434405,4.03441l42.672658,70.897648a5.239264,5.239264 0 0 0 4.870575,0l40.238252,-22.297743a4.630663,4.630663 0 0 0 2.434405,-4.036174l-42.672658,-70.862367a5.175758,5.175758 0 0 0 -4.870575,0" id="svg_13"/>
   <path stroke="null" fill="#37474f" d="m395.230139,172.874251l-40.236488,-22.265989a5.175758,5.175758 0 0 0 -4.870575,0l-40.238252,22.265989a4.741798,4.741798 0 0 0 -2.434405,4.133197l0,44.369685a4.702989,4.702989 0 0 0 2.434405,4.124377l40.238252,22.297743a5.061094,5.061094 0 0 0 4.870575,0l18.580864,-10.284481a2.469687,2.469687 0 0 0 -0.031753,-4.32548l-40.367029,-21.999616a2.194493,2.194493 0 0 1 -1.121943,-1.88931l0,-20.21615a2.125695,2.125695 0 0 1 1.058437,-1.825804l18.325075,-10.123951a2.34091,2.34091 0 0 1 1.121943,-0.289306a2.130987,2.130987 0 0 1 1.088426,0.289306l18.325075,10.155704a2.04102,2.04102 0 0 1 1.088426,1.794051l0,16.499271a2.018087,2.018087 0 0 0 0.993167,1.730545a2.085121,2.085121 0 0 0 1.986334,-0.031753l19.66929,-11.40466a4.022061,4.022061 0 0 0 1.954581,-3.427572l0,-15.410845a4.762967,4.762967 0 0 0 -2.434405,-4.16495z" id="svg_12"/>
   <path stroke="null" fill="#37474f" d="m91.779728,172.874251l-40.238252,-22.265989a5.175758,5.175758 0 0 0 -4.868811,0l-40.238252,22.265989a4.740034,4.740034 0 0 0 -2.434405,4.133197l0,61.212948a2.018087,2.018087 0 0 0 0.993167,1.746421a2.000446,2.000446 0 0 0 1.986334,0l19.671054,-11.445234a3.953263,3.953263 0 0 0 1.954581,-3.427572l0,-36.009796a2.086885,2.086885 0 0 1 1.058437,-1.825804l18.325075,-10.123951a2.321505,2.321505 0 0 1 2.242123,0l18.325075,10.123951a2.116874,2.116874 0 0 1 1.058437,1.825804l0,36.009796a3.953263,3.953263 0 0 0 1.949288,3.427572l19.671054,11.445234a1.986334,1.986334 0 0 0 2.979501,-1.730545l0,-61.197072a4.762967,4.762967 0 0 0 -2.434405,-4.16495z" id="svg_11"/>
   <ellipse ry="5.600002" rx="3.999855" id="svg_20" cy="3.599919" cx="1.200074" fill-opacity="0.01" stroke-opacity="null" stroke-width="null" stroke="null" fill="#37474f"/>
   <ellipse id="svg_21" cy="398.000088" cx="399.600097" fill-opacity="0.01" stroke-opacity="null" stroke-width="null" stroke="null" fill="#37474f"/>
  </g>
 </g>
</svg>