<svg id="icons8-postgresql" xmlns="http://www.w3.org/2000/svg" width="223.158" height="223.135" viewBox="0 0 223.158 223.135">
  <path id="Path_24" data-name="Path 24" d="M224.842,138.85c-.972-4.2-4.942-9.11-12.963-9.11a27.239,27.239,0,0,0-5.479.614,68.243,68.243,0,0,1-9.759,1.228C218.516,95.875,232.72,46.3,218.661,29.094,200.115,6.418,175.18,3.032,161.968,3.032h-1.24a80.9,80.9,0,0,0-15.155,1.723L126.592,8.676a73.624,73.624,0,0,0-7.939-.574H117.6a53.326,53.326,0,0,0-22.97,4.931l-6.637-2.5c-9.1-3.446-22.785-7.545-36.348-7.545-.765,0-1.51.02-2.274.059-13.356.455-24.811,5.308-33.164,14.021C5.785,27.946,1.05,43.868,2.125,64.386c.041,1.049,13,105.953,49.725,105.953h.476a21.923,21.923,0,0,0,13.563-5.466,26.128,26.128,0,0,0,11.351,4.258,58.8,58.8,0,0,0,12.8,1.406,43.534,43.534,0,0,0,18.215-3.743c0,4.476-.021,10.12-.083,17.329v.4l.021.376a67.323,67.323,0,0,0,3.763,18.755c5.562,14.5,15.176,22.478,27.044,22.478.5,0,1.013,0,1.509-.04,9.78-.574,19.683-5.842,26.485-14.061,7.382-8.892,9.077-18.28,9.738-25.469l.041-.455V164.992l.538.04,2.316.2.227.02h.207c.662.04,1.344.059,2.026.059a66.173,66.173,0,0,0,24.439-4.951C212.871,157.545,227.365,149.8,224.842,138.85Z" transform="translate(-1.976 -2.992)" fill="#fff"/>
  <path id="Path_25" data-name="Path 25" d="M108.948,147.963c0-1.03.062-1.9.1-2.872-.062-1.267-.1-2.2-.1-2.2s.062-.04.166-.119c.785-13.546,4.693-18.775,8.869-21.745-.579-.772-1.261-1.6-1.881-2.4-1.758-2.218-3.97-4.971-6.306-8.5l-.435-.792c-.351-.831-1.219-2.277-2.316-4.159C100.8,94.333,87.756,71.756,96.688,57.5c3.908-6.239,11.227-9.843,21.813-10.734C114.159,35,97.97,6.58,61.229,6.005h-.021c-31.985-.5-42.489,27.33-45.9,43.966a41.358,41.358,0,0,1,15.01-3.07h.228c12.116.079,20.448,6.278,22.867,17.012a93.933,93.933,0,0,1,2.605,21.052,65.388,65.388,0,0,1-5.5,27.429l-.827,2.059c-.662,1.7-1.344,3.268-2.006,4.753-.662,1.525-1.261,2.852-1.675,4.08a32.162,32.162,0,0,1,5.955,1.921l.785.337c.248.1.5.218.724.337a15.332,15.332,0,0,1,7.9,11.328c.31,2.535.269,19.745.145,34.757a57.222,57.222,0,0,0,3.142,15.942c2.171,5.644,7.567,16.438,17.967,15.824,7.257-.436,14.225-4.674,18.856-10.239,4.962-5.981,6.782-12.615,7.485-20.062V147.963Z" transform="translate(55.262 9.244)" fill="#0277bd"/>
  <path id="Path_26" data-name="Path 26" d="M62.93,126.288c-8.539-8.536-12.7-20.022-11.124-30.717,1.51-10.318.641-20.4.186-25.845-.145-1.8-.248-3.149-.248-3.9,0-.04.021-.079.021-.119,0-.02-.021-.02-.021-.04.641-15.328,6.8-39.49,23.777-53.848C67.272,8.69,53.792,4.59,41.159,5.026c-19.807.693-38.973,13.8-37.051,50.7.724,13.843,17.057,96.843,39.387,96.328,3.184-.079,6.492-2.04,9.9-5.961,5.376-6.2,10.607-11.823,14.328-15.744A39.286,39.286,0,0,1,62.93,126.288Z" transform="translate(6.606 5.154)" fill="#0277bd"/>
  <path id="Path_27" data-name="Path 27" d="M69.2,54.339a6.717,6.717,0,0,1-.124,2.079,85.682,85.682,0,0,1-.889,13.566c-.393,3.228-.785,6.555-.909,9.9a54.519,54.519,0,0,0,.889,9.9c1.179,8,2.419,17.031-4.052,27.568a52.2,52.2,0,0,1,3.08,4.238C91.6,83.709,101.417,38.654,92.05,27.167,77.847,9.8,58.184,4.769,42.615,5.006A71.119,71.119,0,0,0,29.527,6.492C56.385,18.968,68.356,45.7,69.2,54.339Z" transform="translate(116.302 5.173)" fill="#0277bd"/>
  <path id="Path_28" data-name="Path 28" d="M66.623,30.579c-14.1,2.793-20.882,1.307-24.19-.634-.517.356-1.054.673-1.551.97-1.964,1.129-5.086,2.951-5.851,14.1.455.079.827.119,1.3.217l2.316.2a54.661,54.661,0,0,0,21.5-3.961C71.709,36.322,78.015,28.341,66.623,30.579Z" transform="translate(139.93 106.705)" fill="#0277bd"/>
  <path id="Path_29" data-name="Path 29" d="M52.173,36.664a5.107,5.107,0,0,0-2.6-3.7l-.579-.238A17.4,17.4,0,0,0,41.463,31h-.021c-.682.059-1.344.1-2.005.1-.29,0-.558-.04-.827-.04-2.5,1.842-6.078,3.268-14.907,5.011-15.775,3.842-6.451,8.4-.413,9.09,5.851,1.406,19.766,3.109,29.008-4.1C52.277,38.783,52.235,37.239,52.173,36.664Z" transform="translate(53.939 110.997)" fill="#0277bd"/>
  <path id="Path_30" data-name="Path 30" d="M45.285,28.409a7.919,7.919,0,0,1-6.678,2.456c-4.384-.673-7.733-5.743-7.485-7.644.228-1.9,3.97-2.891,8.332-2.2a17.136,17.136,0,0,1,4.073,1.148c-1.7-3.486-4.756-5.505-9.428-5.981-8.291-.891-17.078,3.248-18.835,5.545.021.574.1,1.287.166,2.119.5,5.822,1.406,16.655-.269,28.082-1.1,7.526,2.088,16.061,8.291,22.28A24.941,24.941,0,0,0,36.767,81.5a42.829,42.829,0,0,1,2.708-7.229c.6-1.347,1.241-2.773,1.84-4.318l.847-2.159a56.54,56.54,0,0,0,4.818-23.844A80.79,80.79,0,0,0,45.285,28.409Z" transform="translate(53.714 50.215)" fill="#0277bd"/>
  <path id="Path_31" data-name="Path 31" d="M46.6,46.316a63.86,63.86,0,0,1-.992-11.685c.124-3.763.558-7.308.992-10.734.31-2.713.579-5.307.724-7.862-6.823.534-11.351,2.436-13.5,5.624a14.134,14.134,0,0,1,3-.654c4.735-.594,8.167.713,8.56,3.228.31,1.842-1.323,3.565-2.047,4.238a9.433,9.433,0,0,1-5.19,2.476,8.7,8.7,0,0,1-1.013.059,9.173,9.173,0,0,1-5.024-1.525c.6,10,8.291,23.389,12.074,29.944.827,1.406,1.448,2.535,1.964,3.486C48.215,57.248,47.45,52.079,46.6,46.316Z" transform="translate(127.387 50.092)" fill="#0277bd"/>
</svg>
