<svg xmlns="http://www.w3.org/2000/svg" width="223.123" height="223.158" viewBox="0 0 223.123 223.158">
  <g id="icons8-adobe-photoshop_1_" data-name="icons8-adobe-photoshop (1)" transform="translate(0)">
    <path id="Path_1" data-name="Path 1" d="M6,30.8A24.779,24.779,0,0,1,30.791,6h173.54a24.779,24.779,0,0,1,24.792,24.8V204.363a24.779,24.779,0,0,1-24.792,24.8H30.791A24.779,24.779,0,0,1,6,204.363Z" transform="translate(-6 -6)" fill="#03a9f4"/>
    <path id="Path_2" data-name="Path 2" d="M30.411,19.176h-12.4V46.659H30.242a9.681,9.681,0,0,0,7.868-3.342c1.864-2.2,2.784-5.448,2.784-9.686,0-4.407-.944-7.894-2.857-10.509A9.073,9.073,0,0,0,30.411,19.176Z" transform="translate(56.456 62.499)" fill="#020f16"/>
    <path id="Path_3" data-name="Path 3" d="M9,9V194.965H194.936V9Zm89.022,97.874q-7.662,7.519-21.281,7.506H64.878v30.994H47.083V57.235H77.1q13.073,0,20.845,8.111t7.771,21.067C105.721,95.057,103.154,101.862,98.022,106.874Zm57.766,34.384c-4.406,3.56-10.192,5.327-17.311,5.327a27.61,27.61,0,0,1-12.711-2.809,21.534,21.534,0,0,1-8.643-7.845A20.178,20.178,0,0,1,114,125.083h16.294c.1,3,.775,5.23,2.082,6.731s3.462,2.228,6.44,2.228c4.6,0,6.9-2.059,6.9-6.223a5.262,5.262,0,0,0-2.082-4.02c-1.4-1.235-4.479-2.905-9.273-4.988-7.07-2.881-11.912-5.836-14.575-8.911a16.947,16.947,0,0,1-3.97-11.453,18.3,18.3,0,0,1,6.222-14.19c4.115-3.729,9.612-5.593,16.414-5.593,7.191,0,12.929,1.865,17.262,5.569q6.464,5.558,6.464,14.94H145.063q0-7.991-6.658-7.991a5.956,5.956,0,0,0-6.246,6.417,5,5,0,0,0,1.937,3.85c1.307,1.114,4.334,2.688,9.152,4.746q10.459,3.887,14.792,8.644c2.9,3.172,4.334,7.264,4.334,12.3A17.286,17.286,0,0,1,155.788,141.258Z" transform="translate(9.594 9.597)" fill="#020f16"/>
  </g>
</svg>
