<svg id="icons8-react-native-filled" xmlns="http://www.w3.org/2000/svg" width="223.158" height="223.135" viewBox="0 0 223.158 223.135">
  <path id="Path_32" data-name="Path 32" d="M159.9,4A31.7,31.7,0,0,0,148.2,5.99C140.26,8.807,131.944,14.3,123.41,21.9c-3.345,2.98-6.72,6.385-10.106,10-3.312-3.522-6.617-6.836-9.888-9.75-8.527-7.6-16.821-13.09-24.739-15.9s-15.8-2.9-22.267,1.193-10.34,11.6-12.075,20.517-1.545,19.532.2,31.418c.606,4.129,1.469,8.46,2.453,12.872-3.7,1.227-7.287,2.518-10.617,3.942-10.048,4.3-18.362,9.44-24.417,15.559s-9.964,13.545-9.964,21.7,3.909,15.57,9.964,21.688,14.368,11.271,24.417,15.569c3.56,1.523,7.415,2.894,11.394,4.19-1.431,5.857-2.591,11.541-3.381,16.928-1.745,11.9-1.929,22.514-.189,31.449s5.611,16.488,12.113,20.6,14.416,4.011,22.352,1.193,16.242-8.3,24.777-15.9c3.313-2.952,6.666-6.32,10.02-9.9,3.372,3.6,6.737,6.98,10.067,9.947,8.527,7.6,16.83,13.079,24.748,15.89s15.8,2.9,22.266-1.193,10.331-11.6,12.066-20.516,1.545-19.522-.2-31.408c-.792-5.4-1.953-11.1-3.391-16.98,4.111-1.328,8.087-2.736,11.753-4.3,10.048-4.3,18.362-9.45,24.417-15.569s9.964-13.534,9.964-21.688-3.909-15.581-9.964-21.7S200.816,80.488,190.768,76.19c-3.377-1.445-7.023-2.751-10.778-3.993.992-4.44,1.872-8.8,2.481-12.955,1.745-11.9,1.929-22.524.189-31.46S177.04,11.3,170.538,7.193A21.051,21.051,0,0,0,159.9,4Zm-.445,10.808a11.886,11.886,0,0,1,6.128,1.784c3.462,2.189,6.022,6.45,7.387,13.463s1.318,16.488-.293,27.477c-.552,3.762-1.353,7.749-2.264,11.835a207.048,207.048,0,0,0-32.372-5.695,252.913,252.913,0,0,0-17.816-23.992c3.187-3.406,6.353-6.593,9.443-9.345,7.883-7.023,15.347-11.8,21.575-14.013A22.755,22.755,0,0,1,159.457,14.806Zm-92.021.031a22.766,22.766,0,0,1,8.24,1.514C81.922,18.57,89.4,23.346,97.289,30.375c3.028,2.7,6.123,5.823,9.244,9.148a253.51,253.51,0,0,0-17.947,24.2,206.284,206.284,0,0,0-32.23,5.736c-.9-4.063-1.7-8.029-2.254-11.772-1.613-11-1.654-20.475-.284-27.508s3.95-11.326,7.444-13.536A12,12,0,0,1,67.435,14.837Zm46.02,32.487c3.95,4.708,7.9,9.86,11.82,15.4-3.851-.176-7.748-.28-11.706-.28-4.037,0-8.009.108-11.933.29C105.555,57.19,109.5,52.035,113.456,47.324Zm.113,25.848c6.594,0,13.022.3,19.274.8,4.3,6.766,8.505,13.945,12.511,21.543,3.52,6.676,6.7,13.343,9.6,19.926-2.93,6.67-6.168,13.427-9.737,20.2-3.141,5.958-6.421,11.617-9.755,17.073-7.062.647-14.379,1.006-21.9,1.006-7.7,0-15.18-.381-22.4-1.058-3.279-5.378-6.5-10.951-9.595-16.814-3.56-6.753-6.783-13.5-9.708-20.154,2.937-6.694,6.174-13.475,9.755-20.268,3.985-7.558,8.176-14.7,12.455-21.429C100.4,73.478,106.9,73.172,113.569,73.172ZM145.326,75.3a192.518,192.518,0,0,1,22.484,4.429c-2.073,7.441-4.625,15.214-7.718,23.234-2.009-4.24-4.089-8.494-6.336-12.758C151.031,85.037,148.195,80.111,145.326,75.3Zm-64.034.083C78.484,80.1,75.72,84.934,73.052,90c-2.276,4.318-4.4,8.63-6.431,12.924-3.067-7.972-5.6-15.7-7.662-23.1A191.891,191.891,0,0,1,81.292,75.382ZM177.4,82.549c3.437,1.139,6.757,2.328,9.8,3.63,9.263,3.962,16.59,8.654,21.338,13.453s6.81,9.376,6.81,13.816-2.061,9.017-6.81,13.816-12.075,9.491-21.338,13.453c-3.384,1.448-7.1,2.76-10.967,4a278.358,278.358,0,0,0-10.466-29.033A272.653,272.653,0,0,0,177.4,82.549ZM49.573,82.6a272.174,272.174,0,0,0,11.479,32.808,278.538,278.538,0,0,0-10.522,29.2c-3.729-1.211-7.321-2.488-10.6-3.89-9.263-3.962-16.59-8.654-21.338-13.453s-6.81-9.376-6.81-13.816,2.061-9.017,6.81-13.816,12.076-9.491,21.338-13.453C42.93,84.9,46.194,83.725,49.573,82.6Zm64,6.451c-13.333,0-24.246,11.951-24.246,26.554s10.913,26.554,24.246,26.554,24.246-11.951,24.246-26.554S126.9,89.052,113.569,89.052ZM66.735,128.167c2.04,4.316,4.162,8.646,6.45,12.986,1.79,3.4,3.618,6.7,5.474,9.948-6.512-.989-12.7-2.241-18.516-3.724C61.992,141.176,64.2,134.739,66.735,128.167Zm93.48,0c2.542,6.588,4.755,13.035,6.611,19.251-5.832,1.481-12.041,2.729-18.573,3.714,1.881-3.286,3.737-6.633,5.55-10.072C156.074,136.752,158.187,132.451,160.214,128.167ZM57.349,157.687a204.886,204.886,0,0,0,28.375,5.166,259.513,259.513,0,0,0,20.808,28.628c-3.157,3.371-6.286,6.535-9.348,9.263-7.883,7.023-15.356,11.791-21.585,14s-10.877,1.919-14.339-.27-6.013-6.45-7.378-13.464-1.328-16.478.284-27.466C54.9,168.562,55.991,163.224,57.349,157.687Zm112.279.041c1.37,5.57,2.466,10.928,3.2,15.943,1.613,11,1.654,20.474.284,27.508s-3.931,11.337-7.426,13.547-8.187,2.5-14.434.28-13.723-6.995-21.613-14.023c-3.085-2.748-6.235-5.937-9.415-9.335a258.952,258.952,0,0,0,20.951-28.773A205.25,205.25,0,0,0,169.628,157.728Zm-71.251,6.214c4.979.3,10.023.5,15.192.5,5,0,9.878-.189,14.7-.467a241.309,241.309,0,0,1-14.955,19.864A241.954,241.954,0,0,1,98.378,163.942Z" transform="translate(-1.99 -3.981)" fill="#61dafb" fill-rule="evenodd"/>
</svg>
