<svg xmlns="http://www.w3.org/2000/svg" width="99.946" height="99.946" viewBox="0 0 99.946 99.946">
  <g id="Group_35" data-name="Group 35" transform="translate(0 0)">
    <path id="Path_54" data-name="Path 54" d="M210.31,22.508a21.336,21.336,0,0,0,5.481-10.667,49.131,49.131,0,0,0-49.8-8.5A127.951,127.951,0,0,1,189.1,35.532c8.944-3.234,16.4-7.659,21.211-13.024Zm0,0" transform="translate(-133.673 0)" fill="rgba(43,44,40,0.59)"/>
    <path id="Path_55" data-name="Path 55" d="M320.412,94.447c-5.387,6-13.393,10.886-22.959,14.435,1.189,2.607,2.282,5.269,3.31,7.965a72.269,72.269,0,0,1,15.2-1.658,71.4,71.4,0,0,1,23.438,3.936c.007-.336.05-.662.05-1a49.659,49.659,0,0,0-13.07-33.555,29.116,29.116,0,0,1-5.965,9.877Zm0,0" transform="translate(-239.501 -68.085)" fill="rgba(43,44,40,0.59)"/>
    <path id="Path_56" data-name="Path 56" d="M5.848,63.931a116.294,116.294,0,0,0,19.8,1.739,106.669,106.669,0,0,0,29-3.973A121.506,121.506,0,0,0,31.446,30.3a50.961,50.961,0,0,0-25.6,33.63Zm0,0" transform="translate(-4.703 -24.37)" fill="rgba(43,44,40,0.59)"/>
    <path id="Path_57" data-name="Path 57" d="M360.6,275.11A65.229,65.229,0,0,0,337.668,271a66.79,66.79,0,0,0-13.223,1.337,145.209,145.209,0,0,1,7.281,41.389A50.292,50.292,0,0,0,360.6,275.11Zm0,0" transform="translate(-261.21 -218.226)" fill="rgba(43,44,40,0.59)"/>
    <path id="Path_58" data-name="Path 58" d="M0,225.61a50.581,50.581,0,0,0,18.492,38.623,42.446,42.446,0,0,1,10.4-21.861c6.8-7.626,16.241-13.337,26.93-16.6-.995-2.566-2.081-5.081-3.228-7.562a111.931,111.931,0,0,1-31.65,4.46,122.229,122.229,0,0,1-20.7-1.813C.092,222.426,0,224.007,0,225.61Zm0,0" transform="translate(0 -175.772)" fill="rgba(43,44,40,0.59)"/>
    <path id="Path_59" data-name="Path 59" d="M131.761,300.053a35.47,35.47,0,0,0-9.307,21.847,49.588,49.588,0,0,0,40.954,5.4,139.435,139.435,0,0,0-7.141-42.224c-9.768,2.929-18.359,8.088-24.505,14.979Zm0,0" transform="translate(-98.594 -229.545)" fill="rgba(43,44,40,0.59)"/>
  </g>
</svg>
