<svg id="email" xmlns="http://www.w3.org/2000/svg" width="150" height="150" viewBox="0 0 150 150">
  <g id="Group_30" data-name="Group 30">
    <path id="Path_34" data-name="Path 34" d="M75,0a75,75,0,1,0,75,75A75,75,0,0,0,75,0Zm0,26.343,44.382,27.675H30.619Zm44.935,71.869h0a8.035,8.035,0,0,1-8.036,8.036H38.107a8.035,8.035,0,0,1-8.036-8.036V55.78a7.993,7.993,0,0,1,.126-1.375L72.6,80.847c.052.033.107.054.161.085s.113.061.17.09a4.451,4.451,0,0,0,.924.36c.033.009.065.013.1.021A4.574,4.574,0,0,0,75,81.534h.007a4.493,4.493,0,0,0,1.047-.133c.033-.008.065-.011.1-.021a4.5,4.5,0,0,0,.924-.36c.057-.029.114-.059.17-.09s.109-.052.161-.085l42.4-26.442a7.983,7.983,0,0,1,.126,1.375V98.212Z" transform="translate(-0.001)" fill="rgba(43,44,40,0.59)"/>
  </g>
</svg>
