<svg xmlns="http://www.w3.org/2000/svg" width="150" height="147.688" viewBox="0 0 150 147.688">
  <path id="icons8-github" d="M78,3A74.957,74.957,0,0,0,59.825,150.688a10.945,10.945,0,0,1-.575-3.644V134.225H49.825c-5.131,0-9.694-2.206-11.906-6.306-2.456-4.556-2.881-11.525-8.969-15.787-1.806-1.419-.431-3.038,1.65-2.819,3.844,1.088,7.031,3.725,10.031,7.638s4.394,4.806,9.975,4.806A71.657,71.657,0,0,0,61.175,121c2.05-5.206,5.594-10,9.925-12.262-24.975-2.569-36.894-14.994-36.894-31.862,0-7.263,3.094-14.288,8.35-20.206-1.725-5.875-3.894-17.856.662-22.419a26.106,26.106,0,0,1,19.662,9.256,56.711,56.711,0,0,1,36.475.012,26.089,26.089,0,0,1,19.675-9.269c4.575,4.569,2.381,16.6.637,22.462,5.225,5.906,8.3,12.913,8.3,20.162,0,16.856-11.9,29.275-36.837,31.856C97.994,112.312,103,122.375,103,129.956v17.087a11,11,0,0,1-.219,1.675A74.96,74.96,0,0,0,78,3Z" transform="translate(-3 -3)" fill="rgba(43,44,40,0.59)"/>
</svg>
