<svg id="instagram" xmlns="http://www.w3.org/2000/svg" width="150" height="150" viewBox="0 0 150 150">
  <path id="Path_40" data-name="Path 40" d="M236.407,221.7A14.7,14.7,0,1,1,221.7,207,14.7,14.7,0,0,1,236.407,221.7Zm0,0" transform="translate(-146.703 -146.704)" fill="rgba(43,44,40,0.59)"/>
  <path id="Path_41" data-name="Path 41" d="M206.034,145.636a14.607,14.607,0,0,0-8.371-8.372,24.4,24.4,0,0,0-8.19-1.518c-4.652-.212-6.047-.258-17.825-.258s-13.174.045-17.825.257a24.42,24.42,0,0,0-8.19,1.519,14.614,14.614,0,0,0-8.373,8.372,24.414,24.414,0,0,0-1.518,8.191c-.212,4.651-.258,6.046-.258,17.825s.046,13.173.258,17.825a24.406,24.406,0,0,0,1.518,8.19,14.607,14.607,0,0,0,8.371,8.372,24.375,24.375,0,0,0,8.191,1.519c4.651.212,6.045.257,17.824.257s13.175-.045,17.825-.257a24.375,24.375,0,0,0,8.191-1.519,14.607,14.607,0,0,0,8.371-8.372,24.429,24.429,0,0,0,1.519-8.19c.212-4.652.257-6.047.257-17.825s-.045-13.174-.257-17.825A24.376,24.376,0,0,0,206.034,145.636ZM171.648,194.3A22.651,22.651,0,1,1,194.3,171.651,22.651,22.651,0,0,1,171.648,194.3Zm23.546-40.9a5.293,5.293,0,1,1,5.293-5.293A5.294,5.294,0,0,1,195.194,153.4Zm0,0" transform="translate(-96.648 -96.65)" fill="rgba(43,44,40,0.59)"/>
  <path id="Path_42" data-name="Path 42" d="M75,0a75,75,0,1,0,75,75A75.008,75.008,0,0,0,75,0Zm42.807,92.755a31.6,31.6,0,0,1-2,10.454,22.021,22.021,0,0,1-12.6,12.6,31.619,31.619,0,0,1-10.453,2c-4.593.209-6.06.26-17.756.26s-13.163-.05-17.757-.26a31.619,31.619,0,0,1-10.453-2,22.021,22.021,0,0,1-12.6-12.6,31.589,31.589,0,0,1-2-10.453c-.212-4.594-.261-6.061-.261-17.757s.049-13.163.26-17.756a31.6,31.6,0,0,1,2-10.454,22.036,22.036,0,0,1,12.6-12.6,31.626,31.626,0,0,1,10.454-2c4.593-.209,6.06-.26,17.756-.26s13.163.05,17.756.261a31.633,31.633,0,0,1,10.454,2,22.027,22.027,0,0,1,12.6,12.6,31.594,31.594,0,0,1,2,10.454c.209,4.593.259,6.06.259,17.756S118.017,88.163,117.807,92.755Zm0,0" fill="rgba(43,44,40,0.59)"/>
</svg>
