<svg xmlns="http://www.w3.org/2000/svg" width="150" height="150" viewBox="0 0 150 150">
  <path id="linkedin" d="M75,0a75,75,0,1,0,75,75A75.008,75.008,0,0,0,75,0ZM53.206,113.379H34.94V58.426H53.206ZM44.073,50.921h-.119c-6.129,0-10.094-4.219-10.094-9.493,0-5.392,4.086-9.5,10.334-9.5s10.094,4.1,10.213,9.5c0,5.273-3.964,9.493-10.334,9.493Zm75,62.457H100.805V83.98c0-7.388-2.645-12.427-9.254-12.427-5.046,0-8.051,3.4-9.372,6.68a12.509,12.509,0,0,0-.6,4.457v30.688H63.314s.239-49.8,0-54.953H81.579v7.781c2.427-3.745,6.77-9.071,16.461-9.071,12.017,0,21.029,7.854,21.029,24.733Zm0,0" fill="rgba(43,44,40,0.59)"/>
</svg>
