<svg xmlns="http://www.w3.org/2000/svg" width="150" height="150" viewBox="0 0 150 150">
  <path id="icons8-pinterest-filled" d="M77,2a75,75,0,1,0,75,75A75.084,75.084,0,0,0,77,2Zm8.289,100.171c-10.751,0-14.726-6.972-14.726-6.972s-1.917,7.529-3.329,12.88a34.925,34.925,0,0,1-3.023,8.449c-1.536,3.388-5.3,8.72-6.411,10.36-.884,1.308-1.979,2.4-2.622,2.27s-.642-.8-.8-2.211a87.7,87.7,0,0,1-.541-12.867,76.857,76.857,0,0,1,1.2-7.732l7.255-29.7c-4.461-9.153-.8-23.452,9.362-23.452,7.21,0,9.1,6.525,6.89,14.367-.982,3.5-4.063,13.311-4.158,13.774a9.5,9.5,0,0,0-.271,2.407c0,2.863,2.188,8.713,9.766,8.713,12.209,0,17.99-18.049,17.99-30.121,0-9.708-6.17-21.434-24.183-21.434-18.352,0-28.474,13.966-28.474,26.785,0,7.19,2.837,10.079,4.151,11.664a2.515,2.515,0,0,1,.528,2.524l-1.158,4.647c-.427,1.536-1.8,2.325-3.727,1.2-1.93-1.109-11.139-5.009-11.139-21.649,0-17.051,16.063-34.725,40.992-34.725,19.79,0,37.268,12.447,37.268,32.612C116.13,88.853,100.583,102.171,85.289,102.171Z" transform="translate(-2 -2)" fill="rgba(43,44,40,0.59)"/>
</svg>
