<svg id="reddit" xmlns="http://www.w3.org/2000/svg" width="150" height="150" viewBox="0 0 150 150">
  <path id="Path_43" data-name="Path 43" d="M214.282,341.716c-2.276,2.276-7.153,3.088-10.628,3.088s-8.352-.812-10.628-3.088a1.372,1.372,0,0,0-1.94,1.94c3.607,3.607,10.536,3.891,12.568,3.891s8.951-.284,12.569-3.891a1.387,1.387,0,0,0,0-1.94A1.368,1.368,0,0,0,214.282,341.716Zm0,0" transform="translate(-128.64 -239.209)" fill="rgba(43,44,40,0.59)"/>
  <path id="Path_44" data-name="Path 44" d="M181.236,261.294a5.294,5.294,0,1,0-5.294,5.294A5.3,5.3,0,0,0,181.236,261.294Zm0,0" transform="translate(-118.778 -178.185)" fill="rgba(43,44,40,0.59)"/>
  <path id="Path_45" data-name="Path 45" d="M75,0a75,75,0,1,0,75,75A75.008,75.008,0,0,0,75,0Zm43.515,85a21.76,21.76,0,0,1,.255,3.286c0,16.83-19.59,30.465-43.755,30.465S31.259,105.119,31.259,88.29a22,22,0,0,1,.255-3.315A10.931,10.931,0,1,1,43.544,67.11c7.59-5.475,18.091-8.971,29.775-9.271,0-.15,5.46-26.16,5.46-26.16a1.925,1.925,0,0,1,.84-1.229,1.949,1.949,0,0,1,1.471-.27l18.18,3.869a7.813,7.813,0,1,1-.8,3.826L82.2,34.41,77.22,57.855c11.475.4,21.78,3.884,29.25,9.285A10.926,10.926,0,0,1,124.994,75a10.983,10.983,0,0,1-6.48,10Zm0,0" fill="rgba(43,44,40,0.59)"/>
  <path id="Path_46" data-name="Path 46" d="M293.294,256a5.294,5.294,0,1,0,5.294,5.294A5.3,5.3,0,0,0,293.294,256Zm0,0" transform="translate(-200.459 -178.185)" fill="rgba(43,44,40,0.59)"/>
</svg>
