<svg xmlns="http://www.w3.org/2000/svg" width="150" height="150" viewBox="0 0 150 150">
  <g id="youtube" transform="translate(0)">
    <path id="Path_60" data-name="Path 60" d="M224.113,236.141l24.4-14.051-24.4-14.051Zm0,0" transform="translate(-158.455 -147.09)" fill="rgba(43,44,40,0.59)"/>
    <path id="Path_61" data-name="Path 61" d="M75,0a75,75,0,1,0,75,75A75.008,75.008,0,0,0,75,0Zm46.864,75.077s0,15.21-1.929,22.545a11.744,11.744,0,0,1-8.261,8.26C104.338,107.813,75,107.813,75,107.813s-29.261,0-36.673-2.007a11.745,11.745,0,0,1-8.261-8.261C28.135,90.287,28.135,75,28.135,75s0-15.209,1.931-22.544a11.982,11.982,0,0,1,8.261-8.338C45.662,42.188,75,42.188,75,42.188s29.338,0,36.673,2.007a11.745,11.745,0,0,1,8.261,8.261c2.007,7.335,1.929,22.62,1.929,22.62Zm0,0" fill="rgba(43,44,40,0.59)"/>
  </g>
</svg>
